<?xml version="1.0" encoding="UTF-8" standalone="no" ?>
<!DOCTYPE svg PUBLIC "-//W3C//DTD SVG 1.1//EN" "http://www.w3.org/Graphics/SVG/1.1/DTD/svg11.dtd">
<svg xmlns="http://www.w3.org/2000/svg" xmlns:xlink="http://www.w3.org/1999/xlink" version="1.1" width="1280" height="1024" viewBox="0 0 1280 1024" xml:space="preserve">
<desc>Created with Fabric.js 4.4.0</desc>
<defs>
</defs>
<g transform="matrix(1 0 0 1 640 512)" id="background-logo"  >
<rect style="stroke: none; stroke-width: 0; stroke-dasharray: none; stroke-linecap: butt; stroke-dashoffset: 0; stroke-linejoin: miter; stroke-miterlimit: 4; fill: rgb(255,255,255); fill-opacity: 0; fill-rule: nonzero; opacity: 1;"  paint-order="stroke"  x="-640" y="-512" rx="0" ry="0" width="1280" height="1024" />
</g>
<g transform="matrix(1.9211538461538462 0 0 1.9211538461538462 641.545328125 736.1874840717154)" id="text-logo-path-group"  >
<g style=""  paint-order="stroke"   >
		<g transform="matrix(1 0 0 1 0 0)" id="text-logo-path-0"  >
<path style="stroke: none; stroke-width: 0; stroke-dasharray: none; stroke-linecap: butt; stroke-dashoffset: 0; stroke-linejoin: miter; stroke-miterlimit: 4; fill: rgb(124,83,249); fill-rule: nonzero; opacity: 1;"  paint-order="stroke"  transform=" translate(-166.54999999999998, 28.875)" d="M -5.83 -8.38 L -5.83 -8.38 Q -5.83 -8.99 -5.69 -9.59 Q -5.54 -10.18 -5.03 -10.54 L -5.03 -10.54 Q -4.61 -10.83 -3.61 -11.49 Q -2.61 -12.15 -1.26 -13.05 Q 0.1 -13.95 1.66 -15.03 Q 3.22 -16.11 4.74 -17.21 L 4.74 -17.21 L 5 -19.4 Q 5.7 -26.17 7.28 -31.82 Q 8.86 -37.48 11.01 -42.04 Q 13.15 -46.6 15.68 -50.02 Q 18.21 -53.43 20.83 -55.74 Q 23.46 -58.04 26.02 -59.18 Q 28.58 -60.33 30.81 -60.33 L 30.81 -60.33 Q 32.42 -60.33 33.77 -59.72 Q 35.13 -59.1 36.09 -57.88 Q 37.06 -56.65 37.61 -54.82 Q 38.16 -52.98 38.16 -50.53 L 38.16 -50.53 Q 38.16 -47.53 37.25 -44.25 Q 36.35 -40.96 34.69 -37.61 Q 33.03 -34.26 30.71 -30.92 Q 28.39 -27.59 25.57 -24.49 Q 22.75 -21.4 19.48 -18.64 Q 16.21 -15.89 12.7 -13.73 L 12.7 -13.73 Q 12.63 -11.76 12.58 -10.62 Q 12.54 -9.47 12.52 -8.88 Q 12.5 -8.28 12.5 -8.06 Q 12.5 -7.83 12.5 -7.7 L 12.5 -7.7 Q 12.5 -7.41 12.62 -7.17 Q 12.73 -6.93 13.07 -6.78 Q 13.41 -6.64 13.99 -6.56 Q 14.57 -6.48 15.53 -6.48 L 15.53 -6.48 Q 16.98 -6.48 19.43 -7.19 L 19.43 -7.19 L 30.23 -10.28 Q 30.49 -10.34 30.74 -10.38 Q 31 -10.41 31.23 -10.41 L 31.23 -10.41 Q 32.03 -10.41 32.61 -10.1 Q 33.19 -9.8 33.58 -9.28 Q 33.97 -8.77 34.16 -8.09 Q 34.35 -7.41 34.35 -6.7 L 34.35 -6.7 Q 34.35 -6.06 34.16 -5.45 Q 33.97 -4.83 33.58 -4.3 Q 33.19 -3.77 32.61 -3.38 Q 32.03 -3 31.26 -2.87 L 31.26 -2.87 Q 28.1 -1.61 24.81 -0.61 L 24.81 -0.61 Q 23.4 -0.19 21.83 0.21 Q 20.27 0.61 18.64 0.92 Q 17.02 1.22 15.36 1.42 Q 13.7 1.61 12.15 1.61 L 12.15 1.61 Q 9.76 1.61 8.23 0.79 Q 6.7 -0.03 5.82 -1.43 Q 4.93 -2.84 4.58 -4.67 Q 4.22 -6.51 4.22 -8.57 L 4.22 -8.57 Q 1.45 -6.54 -0.48 -5.35 Q -2.42 -4.16 -2.96 -4.16 L -2.96 -4.16 Q -3.51 -4.16 -4.01 -4.53 Q -4.51 -4.9 -4.93 -5.51 Q -5.35 -6.12 -5.59 -6.88 Q -5.83 -7.64 -5.83 -8.38 Z M 13.28 -21.85 L 13.28 -21.85 Q 14.92 -23.56 16.71 -25.57 Q 18.5 -27.59 20.25 -29.79 Q 22.01 -32 23.64 -34.31 Q 25.27 -36.61 26.57 -38.9 Q 27.88 -41.19 28.76 -43.34 Q 29.65 -45.5 29.91 -47.44 L 29.91 -47.44 Q 30 -48.08 30.04 -48.68 Q 30.07 -49.27 30.07 -49.79 L 30.07 -49.79 Q 30.07 -51.63 29.57 -52.46 Q 29.07 -53.3 28.2 -53.3 L 28.2 -53.3 Q 27.17 -53.3 25.78 -52.22 Q 24.4 -51.14 22.88 -49.15 Q 21.37 -47.15 19.82 -44.31 Q 18.27 -41.48 16.95 -38 Q 15.63 -34.51 14.65 -30.42 Q 13.66 -26.33 13.28 -21.85 Z M 34.03 -9.06 L 34.03 -9.06 Q 34.03 -11.47 34.71 -14.02 Q 35.38 -16.56 36.58 -19 Q 37.77 -21.43 39.4 -23.59 Q 41.02 -25.75 42.96 -27.36 Q 44.89 -28.97 47.03 -29.92 Q 49.18 -30.87 51.4 -30.87 L 51.4 -30.87 Q 52.14 -30.87 52.56 -30.58 Q 52.98 -30.29 53.25 -29.92 Q 53.53 -29.55 53.79 -29.2 Q 54.04 -28.84 54.43 -28.68 L 54.43 -28.68 Q 54.82 -28.52 55.22 -28.47 Q 55.62 -28.42 56.04 -28.42 L 56.04 -28.42 Q 56.4 -28.42 56.77 -28.44 Q 57.14 -28.46 57.49 -28.46 L 57.49 -28.46 Q 57.98 -28.46 58.39 -28.36 Q 58.81 -28.26 59.14 -27.94 Q 59.46 -27.62 59.64 -27.04 Q 59.81 -26.46 59.81 -25.46 L 59.81 -25.46 Q 59.81 -23.91 59.49 -22.03 Q 59.17 -20.14 58.78 -18.16 Q 58.39 -16.18 58.07 -14.2 Q 57.75 -12.21 57.75 -10.44 L 57.75 -10.44 Q 57.75 -8.93 58.02 -8.07 Q 58.3 -7.22 59.2 -7.22 L 59.2 -7.22 Q 59.88 -7.22 60.62 -7.56 Q 61.36 -7.9 62.12 -8.44 Q 62.87 -8.99 63.63 -9.68 Q 64.39 -10.38 65.07 -11.12 L 65.07 -11.12 Q 66.64 -12.86 68.26 -15.05 L 68.26 -15.05 L 69.8 -7.9 Q 69.06 -6.86 67.82 -5.48 Q 66.58 -4.09 65.03 -2.84 Q 63.49 -1.58 61.71 -0.71 Q 59.94 0.16 58.17 0.16 L 58.17 0.16 Q 56.04 0.16 54.62 -1.21 Q 53.21 -2.58 52.17 -5.19 L 52.17 -5.19 Q 51.4 -4.29 50.27 -3.35 Q 49.15 -2.42 47.81 -1.66 Q 46.47 -0.9 45.02 -0.42 Q 43.57 0.06 42.12 0.06 L 42.12 0.06 Q 40.57 0.06 39.11 -0.56 Q 37.64 -1.19 36.51 -2.37 Q 35.38 -3.54 34.71 -5.24 Q 34.03 -6.93 34.03 -9.06 Z M 42.28 -10.44 L 42.28 -10.44 Q 42.28 -9.64 42.39 -8.88 Q 42.51 -8.12 42.8 -7.52 Q 43.09 -6.93 43.57 -6.56 Q 44.05 -6.19 44.79 -6.19 L 44.79 -6.19 Q 45.99 -6.19 46.95 -7.22 Q 47.92 -8.25 48.63 -9.7 Q 49.34 -11.15 49.77 -12.7 Q 50.21 -14.24 50.34 -15.28 L 50.34 -15.28 L 52.3 -24.75 Q 50.98 -24.75 49.73 -24.09 Q 48.47 -23.43 47.36 -22.3 Q 46.25 -21.17 45.31 -19.72 Q 44.38 -18.27 43.7 -16.68 Q 43.02 -15.08 42.65 -13.47 Q 42.28 -11.86 42.28 -10.44 Z M 83.56 -0.74 L 83.56 -0.74 Q 83.56 -1.22 83.77 -2.01 Q 83.98 -2.8 84.42 -3.54 Q 84.85 -4.29 85.51 -4.83 Q 86.17 -5.38 87.11 -5.38 L 87.11 -5.38 Q 88.17 -5.38 89.35 -5.03 Q 90.52 -4.67 91.78 -4.24 Q 93.04 -3.8 94.36 -3.45 Q 95.68 -3.09 97.03 -3.09 L 97.03 -3.09 Q 98.1 -3.09 99.1 -3.95 Q 100.1 -4.8 100.98 -6.3 Q 101.87 -7.8 102.67 -9.81 Q 103.48 -11.83 104.19 -14.16 Q 104.9 -16.5 105.51 -19.05 Q 106.12 -21.59 106.64 -24.14 L 106.64 -24.14 L 102.67 -24.14 Q 102.13 -24.14 101.32 -24.27 Q 100.51 -24.4 99.77 -24.7 Q 99.03 -25.01 98.52 -25.52 Q 98 -26.04 98 -26.81 L 98 -26.81 Q 98 -27.36 98.29 -27.84 Q 98.58 -28.33 99.26 -28.55 L 99.26 -28.55 Q 101.06 -28.94 102.42 -29.23 Q 103.77 -29.52 104.82 -29.73 Q 105.86 -29.94 106.67 -30.1 Q 107.48 -30.26 108.15 -30.36 L 108.15 -30.36 Q 108.93 -33.81 109.38 -36.35 Q 109.83 -38.9 110.15 -40.98 Q 110.47 -43.05 110.76 -44.89 Q 111.05 -46.73 111.44 -48.79 L 111.44 -48.79 Q 108.64 -47.99 106.57 -46.86 Q 104.51 -45.73 103.16 -44.44 Q 101.8 -43.15 101.16 -41.77 Q 100.51 -40.38 100.51 -39.06 L 100.51 -39.06 Q 100.51 -38.99 100.48 -38.61 Q 100.45 -38.22 100.13 -37.77 Q 99.81 -37.32 99.08 -36.96 Q 98.36 -36.61 96.97 -36.61 L 96.97 -36.61 Q 95.1 -36.61 94.05 -36.82 Q 93.01 -37.03 92.51 -37.4 Q 92.01 -37.77 91.89 -38.24 Q 91.78 -38.7 91.78 -39.19 L 91.78 -39.19 Q 91.78 -43.99 94.2 -47.42 Q 96.62 -50.85 100.98 -53.04 Q 105.35 -55.24 111.46 -56.27 Q 117.56 -57.3 124.94 -57.3 L 124.94 -57.3 Q 129.84 -57.3 135.21 -56.98 Q 140.57 -56.65 146.28 -55.85 L 146.28 -55.85 Q 147.92 -55.4 148.55 -54.56 Q 149.18 -53.72 149.18 -52.79 L 149.18 -52.79 Q 149.18 -52.17 149 -51.5 Q 148.82 -50.82 148.47 -50.24 Q 148.11 -49.66 147.52 -49.29 Q 146.92 -48.92 146.12 -48.92 L 146.12 -48.92 Q 145.99 -48.92 145.84 -48.94 Q 145.7 -48.95 145.54 -48.98 L 145.54 -48.98 Q 143.44 -49.34 140.99 -49.61 Q 138.54 -49.89 135.87 -50.06 Q 133.19 -50.24 130.34 -50.32 Q 127.49 -50.4 124.56 -50.4 L 124.56 -50.4 Q 123.69 -50.4 122.48 -50.31 Q 121.27 -50.21 120.14 -50.08 L 120.14 -50.08 Q 118.85 -49.95 117.47 -49.76 L 117.47 -49.76 Q 117.47 -49.4 117.4 -48.95 Q 117.34 -48.5 117.21 -47.7 Q 117.08 -46.89 116.9 -45.63 Q 116.72 -44.38 116.47 -42.39 Q 116.21 -40.41 115.89 -37.61 Q 115.56 -34.8 115.18 -30.94 L 115.18 -30.94 L 133.06 -30.94 Q 133.84 -30.94 134.26 -30.63 Q 134.67 -30.33 134.87 -29.86 Q 135.06 -29.39 135.09 -28.86 Q 135.13 -28.33 135.13 -27.84 L 135.13 -27.84 Q 135.13 -26.3 134.45 -25.52 Q 133.77 -24.75 133.06 -24.75 L 133.06 -24.75 Q 132.84 -24.75 131.58 -24.7 Q 130.32 -24.65 128.52 -24.59 Q 126.71 -24.52 124.56 -24.44 Q 122.4 -24.36 120.38 -24.3 Q 118.37 -24.23 116.71 -24.19 Q 115.05 -24.14 114.21 -24.14 L 114.21 -24.14 Q 113.63 -20.24 112.89 -16.63 Q 112.15 -13.02 111.04 -9.88 Q 109.92 -6.74 108.41 -4.16 Q 106.9 -1.58 104.8 0.26 Q 102.71 2.09 99.97 3.11 Q 97.23 4.13 93.68 4.13 L 93.68 4.13 Q 92.94 4.13 91.91 4.03 Q 90.88 3.93 89.75 3.71 Q 88.62 3.48 87.51 3.11 Q 86.4 2.74 85.53 2.19 Q 84.66 1.64 84.11 0.92 Q 83.56 0.19 83.56 -0.74 Z M 126.88 -18.76 L 126.88 -18.76 Q 126.88 -21.62 127.29 -24.99 Q 127.71 -28.36 128.52 -31.94 Q 129.33 -35.51 130.44 -39.12 Q 131.55 -42.73 132.95 -46.05 Q 134.35 -49.37 136 -52.26 Q 137.64 -55.14 139.44 -57.28 Q 141.25 -59.43 143.21 -60.65 Q 145.18 -61.88 147.21 -61.88 L 147.21 -61.88 Q 148.6 -61.88 149.5 -61.25 Q 150.4 -60.62 150.92 -59.59 Q 151.43 -58.56 151.64 -57.25 Q 151.85 -55.95 151.85 -54.59 L 151.85 -54.59 Q 151.85 -51.56 151.16 -48.42 Q 150.47 -45.28 149.29 -42.1 Q 148.11 -38.93 146.57 -35.74 Q 145.02 -32.55 143.34 -29.41 Q 141.67 -26.26 139.98 -23.22 Q 138.28 -20.17 136.8 -17.27 L 136.8 -17.27 Q 136.64 -16.95 136.46 -16.44 Q 136.29 -15.92 136.13 -15.32 Q 135.96 -14.73 135.8 -14.05 Q 135.64 -13.37 135.54 -12.73 L 135.54 -12.73 L 135.54 -12.28 Q 135.54 -11.44 135.72 -10.65 Q 135.9 -9.86 136.16 -9.23 Q 136.42 -8.6 136.71 -8.23 Q 137 -7.86 137.25 -7.86 L 137.25 -7.86 Q 137.87 -7.86 138.65 -8.12 Q 139.44 -8.38 140.33 -8.81 Q 141.22 -9.25 142.15 -9.81 Q 143.09 -10.38 143.96 -10.96 L 143.96 -10.96 Q 145.99 -12.31 148.21 -14.08 L 148.21 -14.08 L 150.85 -7.32 Q 147.98 -5.25 145.18 -3.64 L 145.18 -3.64 Q 143.96 -2.96 142.65 -2.3 Q 141.35 -1.64 140.02 -1.13 Q 138.7 -0.61 137.45 -0.31 Q 136.19 0 135.09 0 L 135.09 0 Q 133.35 0 131.85 -1.53 Q 130.36 -3.06 129.24 -5.64 Q 128.13 -8.22 127.5 -11.62 Q 126.88 -15.02 126.88 -18.76 Z M 135.13 -25.78 L 135.13 -25.78 Q 136.58 -28.36 138.2 -31.58 Q 139.83 -34.8 141.28 -38.22 Q 142.73 -41.64 143.79 -45.04 Q 144.86 -48.44 145.15 -51.37 L 145.15 -51.37 Q 145.15 -52.3 145.1 -52.96 Q 145.05 -53.63 144.79 -53.63 L 144.79 -53.63 Q 143.86 -53.63 142.78 -52.42 Q 141.7 -51.21 140.62 -49.15 Q 139.54 -47.08 138.56 -44.34 Q 137.58 -41.6 136.8 -38.51 Q 136.03 -35.42 135.58 -32.15 Q 135.13 -28.88 135.13 -25.78 Z M 144.38 -14.08 L 144.38 -14.08 Q 144.38 -17.63 145.44 -20.71 Q 146.5 -23.78 148.48 -26.06 Q 150.47 -28.33 153.33 -29.63 Q 156.2 -30.94 159.78 -30.94 L 159.78 -30.94 Q 162.84 -30.94 165.52 -29.99 Q 168.19 -29.04 170.53 -27.44 Q 172.86 -25.85 174.88 -23.78 Q 176.89 -21.72 178.63 -19.53 L 178.63 -19.53 L 178.02 -14.99 Q 177.15 -16.15 175.67 -17.5 Q 174.18 -18.85 172.52 -20.14 Q 170.87 -21.43 169.25 -22.57 Q 167.64 -23.72 166.48 -24.49 L 166.48 -24.49 L 166.22 -24.14 Q 167.16 -22.27 167.63 -20.19 Q 168.09 -18.11 168.09 -16.21 L 168.09 -16.21 Q 168.09 -14.31 167.67 -12.38 Q 167.26 -10.44 166.47 -8.64 Q 165.68 -6.83 164.53 -5.25 Q 163.39 -3.67 161.92 -2.51 Q 160.46 -1.35 158.72 -0.68 Q 156.98 0 155.01 0 L 155.01 0 Q 152.17 0 150.16 -1.24 Q 148.15 -2.48 146.86 -4.48 Q 145.57 -6.48 144.97 -8.99 Q 144.38 -11.5 144.38 -14.08 Z M 151.59 -12.76 L 151.59 -12.76 Q 151.59 -11.41 151.85 -10.22 Q 152.11 -9.02 152.66 -8.14 Q 153.21 -7.25 154.11 -6.72 Q 155.01 -6.19 156.27 -6.19 L 156.27 -6.19 Q 157.36 -6.19 158.39 -7.3 Q 159.42 -8.41 160.2 -10.1 Q 160.97 -11.79 161.44 -13.84 Q 161.91 -15.89 161.91 -17.76 L 161.91 -17.76 Q 161.91 -19.24 161.68 -20.51 Q 161.46 -21.79 161 -22.72 Q 160.55 -23.65 159.84 -24.2 Q 159.13 -24.75 158.14 -24.75 L 158.14 -24.75 Q 156.81 -24.75 155.62 -23.62 Q 154.43 -22.49 153.53 -20.74 Q 152.63 -18.98 152.11 -16.85 Q 151.59 -14.73 151.59 -12.76 Z M 174.57 -6.74 L 174.57 -6.74 Q 174.57 -8.15 174.73 -10.04 Q 174.89 -11.92 175.17 -14.02 Q 175.44 -16.11 175.81 -18.29 Q 176.18 -20.46 176.6 -22.43 Q 177.02 -24.4 177.44 -26.04 Q 177.86 -27.68 178.28 -28.75 L 178.28 -28.75 Q 178.54 -29.46 178.79 -29.87 Q 179.05 -30.29 179.39 -30.53 Q 179.73 -30.78 180.23 -30.86 Q 180.73 -30.94 181.47 -30.94 L 181.47 -30.94 Q 182.31 -30.94 182.77 -30.86 Q 183.24 -30.78 183.47 -30.47 Q 183.69 -30.16 183.74 -29.58 Q 183.79 -29 183.79 -28 L 183.79 -28 Q 183.79 -26.81 183.79 -25.12 Q 183.79 -23.43 183.85 -21.79 L 183.85 -21.79 L 184.21 -21.79 Q 184.85 -23.07 185.66 -24.67 Q 186.46 -26.26 187.53 -27.65 Q 188.59 -29.04 189.94 -29.99 Q 191.3 -30.94 193.07 -30.94 L 193.07 -30.94 Q 193.68 -30.94 194.26 -30.73 Q 194.84 -30.52 195.28 -30.13 Q 195.71 -29.75 195.97 -29.18 Q 196.23 -28.62 196.23 -27.91 L 196.23 -27.91 Q 196.23 -27.36 196.07 -26.38 Q 195.91 -25.39 195.71 -24.31 Q 195.52 -23.24 195.36 -22.22 Q 195.2 -21.21 195.2 -20.53 L 195.2 -20.53 Q 195.2 -19.37 195.42 -18.59 Q 195.65 -17.82 196.02 -17.35 Q 196.39 -16.89 196.86 -16.69 Q 197.32 -16.5 197.84 -16.5 L 197.84 -16.5 Q 199.29 -16.5 200.84 -17.14 Q 202.38 -17.79 203.67 -18.59 L 203.67 -18.59 Q 205.19 -19.53 206.64 -20.72 L 206.64 -20.72 L 206.15 -13.18 Q 205.32 -12.63 204.25 -11.96 Q 203.19 -11.28 201.98 -10.68 Q 200.77 -10.09 199.47 -9.68 Q 198.16 -9.28 196.81 -9.28 L 196.81 -9.28 Q 194.39 -9.28 192.91 -10.26 Q 191.43 -11.25 190.56 -12.84 Q 189.69 -14.44 189.27 -16.42 Q 188.85 -18.4 188.59 -20.43 L 188.59 -20.43 L 188.07 -20.43 L 182.31 -4.35 Q 181.85 -3.09 181.45 -2.27 Q 181.05 -1.45 180.63 -0.93 Q 180.21 -0.42 179.73 -0.21 Q 179.24 0 178.66 0 L 178.66 0 Q 177.34 0 176.54 -0.56 Q 175.73 -1.13 175.3 -2.08 Q 174.86 -3.03 174.72 -4.24 Q 174.57 -5.45 174.57 -6.74 Z M 200.35 -9.06 L 200.35 -9.06 Q 200.35 -11.47 201.03 -14.02 Q 201.71 -16.56 202.9 -19 Q 204.09 -21.43 205.72 -23.59 Q 207.35 -25.75 209.28 -27.36 Q 211.21 -28.97 213.36 -29.92 Q 215.5 -30.87 217.72 -30.87 L 217.72 -30.87 Q 218.46 -30.87 218.88 -30.58 Q 219.3 -30.29 219.58 -29.92 Q 219.85 -29.55 220.11 -29.2 Q 220.37 -28.84 220.75 -28.68 L 220.75 -28.68 Q 221.14 -28.52 221.54 -28.47 Q 221.94 -28.42 222.36 -28.42 L 222.36 -28.42 Q 222.72 -28.42 223.09 -28.44 Q 223.46 -28.46 223.81 -28.46 L 223.81 -28.46 Q 224.3 -28.46 224.72 -28.36 Q 225.13 -28.26 225.46 -27.94 Q 225.78 -27.62 225.96 -27.04 Q 226.13 -26.46 226.13 -25.46 L 226.13 -25.46 Q 226.13 -23.91 225.81 -22.03 Q 225.49 -20.14 225.1 -18.16 Q 224.72 -16.18 224.39 -14.2 Q 224.07 -12.21 224.07 -10.44 L 224.07 -10.44 Q 224.07 -8.93 224.35 -8.07 Q 224.62 -7.22 225.52 -7.22 L 225.52 -7.22 Q 226.2 -7.22 226.94 -7.56 Q 227.68 -7.9 228.44 -8.44 Q 229.2 -8.99 229.95 -9.68 Q 230.71 -10.38 231.39 -11.12 L 231.39 -11.12 Q 232.97 -12.86 234.58 -15.05 L 234.58 -15.05 L 236.12 -7.9 Q 235.38 -6.86 234.14 -5.48 Q 232.9 -4.09 231.35 -2.84 Q 229.81 -1.58 228.04 -0.71 Q 226.26 0.16 224.49 0.16 L 224.49 0.16 Q 222.36 0.16 220.95 -1.21 Q 219.53 -2.58 218.5 -5.19 L 218.5 -5.19 Q 217.72 -4.29 216.59 -3.35 Q 215.47 -2.42 214.13 -1.66 Q 212.79 -0.9 211.34 -0.42 Q 209.89 0.06 208.44 0.06 L 208.44 0.06 Q 206.89 0.06 205.43 -0.56 Q 203.96 -1.19 202.83 -2.37 Q 201.71 -3.54 201.03 -5.24 Q 200.35 -6.93 200.35 -9.06 Z M 208.6 -10.44 L 208.6 -10.44 Q 208.6 -9.64 208.72 -8.88 Q 208.83 -8.12 209.12 -7.52 Q 209.41 -6.93 209.89 -6.56 Q 210.38 -6.19 211.12 -6.19 L 211.12 -6.19 Q 212.31 -6.19 213.28 -7.22 Q 214.24 -8.25 214.95 -9.7 Q 215.66 -11.15 216.1 -12.7 Q 216.53 -14.24 216.66 -15.28 L 216.66 -15.28 L 218.63 -24.75 Q 217.3 -24.75 216.05 -24.09 Q 214.79 -23.43 213.68 -22.3 Q 212.57 -21.17 211.63 -19.72 Q 210.7 -18.27 210.02 -16.68 Q 209.34 -15.08 208.97 -13.47 Q 208.6 -11.86 208.6 -10.44 Z M 231.29 -6.48 L 231.29 -6.48 Q 231.29 -8.51 231.76 -11.2 Q 232.22 -13.89 232.9 -16.77 Q 233.58 -19.66 234.34 -22.53 Q 235.09 -25.39 235.67 -27.81 L 235.67 -27.81 Q 235.9 -28.65 236.58 -29.25 Q 237.25 -29.84 238.11 -30.21 Q 238.96 -30.58 239.88 -30.76 Q 240.8 -30.94 241.54 -30.94 L 241.54 -30.94 Q 242.89 -30.94 243.38 -30.44 Q 243.86 -29.94 243.86 -29.1 L 243.86 -29.1 Q 243.86 -28.39 243.54 -27.05 Q 243.21 -25.72 242.73 -24.02 Q 242.25 -22.33 241.7 -20.38 Q 241.15 -18.43 240.67 -16.48 Q 240.18 -14.53 239.86 -12.68 Q 239.54 -10.83 239.54 -9.35 L 239.54 -9.35 Q 239.54 -7.9 239.86 -7.04 Q 240.18 -6.19 241.18 -6.19 L 241.18 -6.19 Q 242.34 -6.19 243.76 -6.99 Q 245.18 -7.8 246.63 -8.94 Q 248.08 -10.09 249.47 -11.31 Q 250.85 -12.54 251.92 -13.41 L 251.92 -13.41 L 251.92 -6.86 Q 250.75 -5.8 249.03 -4.59 Q 247.31 -3.38 245.31 -2.37 Q 243.31 -1.35 241.23 -0.68 Q 239.15 0 237.28 0 L 237.28 0 Q 235.61 0 234.46 -0.47 Q 233.32 -0.93 232.61 -1.77 Q 231.9 -2.61 231.6 -3.82 Q 231.29 -5.03 231.29 -6.48 Z M 237.51 -39.99 L 237.51 -39.99 Q 237.51 -40.73 237.83 -41.67 Q 238.15 -42.6 238.88 -43.43 Q 239.6 -44.25 240.81 -44.81 Q 242.02 -45.38 243.83 -45.38 L 243.83 -45.38 Q 244.95 -45.38 245.95 -45.12 Q 246.95 -44.86 247.69 -44.33 Q 248.43 -43.8 248.87 -42.93 Q 249.3 -42.06 249.3 -40.86 L 249.3 -40.86 Q 249.3 -39.77 248.95 -38.74 Q 248.6 -37.71 247.82 -36.9 Q 247.05 -36.09 245.87 -35.59 Q 244.7 -35.09 243.05 -35.09 L 243.05 -35.09 Q 240.22 -35.09 238.86 -36.43 Q 237.51 -37.77 237.51 -39.99 Z M 245.5 -8.25 L 245.5 -8.25 Q 245.5 -9.02 245.89 -9.68 Q 246.28 -10.34 246.79 -10.86 Q 247.31 -11.38 247.82 -11.76 Q 248.34 -12.15 248.6 -12.38 L 248.6 -12.38 Q 250.4 -13.92 251.53 -14.95 Q 252.66 -15.98 253.46 -16.84 Q 254.27 -17.69 254.93 -18.56 Q 255.59 -19.43 256.49 -20.63 Q 257.39 -21.82 258.68 -23.54 Q 259.97 -25.27 262.03 -27.84 L 262.03 -27.84 Q 262.45 -28.42 262.97 -28.97 Q 263.48 -29.52 264.11 -29.95 Q 264.74 -30.39 265.5 -30.66 Q 266.26 -30.94 267.19 -30.94 L 267.19 -30.94 Q 268.74 -30.94 269.58 -30.6 Q 270.41 -30.26 270.8 -29.78 Q 271.19 -29.29 271.25 -28.76 Q 271.32 -28.23 271.32 -27.84 L 271.32 -27.84 Q 271.32 -27.07 270.7 -26.14 Q 270.09 -25.2 269.35 -24.33 Q 268.61 -23.46 267.95 -22.74 Q 267.29 -22.01 267.19 -21.66 L 267.19 -21.66 Q 267.19 -20.66 267.34 -19.84 Q 267.48 -19.01 267.72 -18.22 Q 267.96 -17.43 268.22 -16.55 Q 268.48 -15.66 268.72 -14.5 Q 268.96 -13.34 269.11 -11.83 Q 269.25 -10.31 269.25 -8.25 L 269.25 -8.25 Q 270.41 -9.02 271.75 -9.65 Q 273.09 -10.28 274.54 -10.96 Q 275.99 -11.63 277.52 -12.46 Q 279.05 -13.28 280.6 -14.44 L 280.6 -14.44 L 280.63 -7.22 Q 278.63 -5.67 276 -4.32 Q 273.38 -2.96 270.49 -1.93 Q 267.61 -0.9 264.66 -0.31 Q 261.71 0.29 259.07 0.29 L 259.07 0.29 Q 257.17 0.29 255.52 -0.06 Q 253.88 -0.42 252.64 -1.18 Q 251.4 -1.93 250.63 -3.16 Q 249.85 -4.38 249.69 -6.12 L 249.69 -6.12 Q 249.24 -6.03 248.81 -5.99 Q 248.37 -5.96 247.95 -5.96 L 247.95 -5.96 Q 247.44 -5.96 246.98 -5.99 Q 246.53 -6.03 246.21 -6.24 Q 245.89 -6.45 245.7 -6.91 Q 245.5 -7.38 245.5 -8.25 Z M 261 -16.5 L 252.72 -8.25 Q 253.11 -8.25 253.57 -7.77 Q 254.04 -7.28 254.65 -6.7 Q 255.27 -6.12 256.07 -5.64 Q 256.88 -5.16 257.91 -5.16 L 257.91 -5.16 Q 259.17 -5.16 259.99 -5.58 Q 260.81 -5.99 261.29 -6.69 Q 261.78 -7.38 261.97 -8.3 Q 262.16 -9.22 262.16 -10.22 L 262.16 -10.22 Q 262.16 -11.09 262.05 -11.99 Q 261.94 -12.89 261.76 -13.71 Q 261.58 -14.53 261.37 -15.26 Q 261.16 -15.98 261 -16.5 L 261 -16.5 Z M 275.44 -14.08 L 275.44 -14.08 Q 275.44 -17.63 276.5 -20.71 Q 277.57 -23.78 279.55 -26.06 Q 281.53 -28.33 284.4 -29.63 Q 287.27 -30.94 290.84 -30.94 L 290.84 -30.94 Q 293.91 -30.94 296.58 -29.99 Q 299.26 -29.04 301.59 -27.44 Q 303.93 -25.85 305.94 -23.78 Q 307.96 -21.72 309.7 -19.53 L 309.7 -19.53 L 309.08 -14.99 Q 308.21 -16.15 306.73 -17.5 Q 305.25 -18.85 303.59 -20.14 Q 301.93 -21.43 300.32 -22.57 Q 298.71 -23.72 297.55 -24.49 L 297.55 -24.49 L 297.29 -24.14 Q 298.22 -22.27 298.69 -20.19 Q 299.16 -18.11 299.16 -16.21 L 299.16 -16.21 Q 299.16 -14.31 298.74 -12.38 Q 298.32 -10.44 297.53 -8.64 Q 296.74 -6.83 295.6 -5.25 Q 294.45 -3.67 292.99 -2.51 Q 291.52 -1.35 289.78 -0.68 Q 288.04 0 286.08 0 L 286.08 0 Q 283.24 0 281.23 -1.24 Q 279.21 -2.48 277.92 -4.48 Q 276.63 -6.48 276.04 -8.99 Q 275.44 -11.5 275.44 -14.08 Z M 282.66 -12.76 L 282.66 -12.76 Q 282.66 -11.41 282.92 -10.22 Q 283.17 -9.02 283.72 -8.14 Q 284.27 -7.25 285.17 -6.72 Q 286.08 -6.19 287.33 -6.19 L 287.33 -6.19 Q 288.43 -6.19 289.46 -7.3 Q 290.49 -8.41 291.26 -10.1 Q 292.04 -11.79 292.5 -13.84 Q 292.97 -15.89 292.97 -17.76 L 292.97 -17.76 Q 292.97 -19.24 292.75 -20.51 Q 292.52 -21.79 292.07 -22.72 Q 291.62 -23.65 290.91 -24.2 Q 290.2 -24.75 289.2 -24.75 L 289.2 -24.75 Q 287.88 -24.75 286.69 -23.62 Q 285.5 -22.49 284.59 -20.74 Q 283.69 -18.98 283.17 -16.85 Q 282.66 -14.73 282.66 -12.76 Z M 305.64 -6.74 L 305.64 -6.74 Q 305.64 -8.86 305.89 -11.65 Q 306.15 -14.44 306.54 -17.32 Q 306.93 -20.21 307.41 -22.88 Q 307.89 -25.56 308.34 -27.46 L 308.34 -27.46 Q 308.7 -28.94 309.71 -29.94 Q 310.73 -30.94 312.47 -30.94 L 312.47 -30.94 Q 314.21 -30.94 314.89 -29.87 Q 315.56 -28.81 315.56 -27.04 L 315.56 -27.04 Q 315.56 -26.55 315.47 -25.73 Q 315.37 -24.91 315.22 -23.93 Q 315.08 -22.95 314.92 -21.9 Q 314.76 -20.85 314.61 -19.96 Q 314.47 -19.08 314.37 -18.42 Q 314.27 -17.76 314.27 -17.53 L 314.27 -17.53 L 314.92 -17.53 Q 315.11 -17.89 315.53 -18.68 Q 315.95 -19.46 316.5 -20.5 Q 317.04 -21.53 317.67 -22.67 Q 318.3 -23.82 318.85 -24.86 Q 319.4 -25.91 319.85 -26.72 Q 320.3 -27.52 320.53 -27.91 L 320.53 -27.91 Q 321.56 -29.65 322.88 -30.29 Q 324.2 -30.94 325.81 -30.94 L 325.81 -30.94 Q 327.42 -30.94 328.37 -29.58 Q 329.32 -28.23 329.32 -25.85 L 329.32 -25.85 Q 329.32 -25.49 329.18 -24.65 Q 329.03 -23.82 328.81 -22.66 Q 328.58 -21.5 328.31 -20.11 Q 328.03 -18.72 327.81 -17.27 Q 327.58 -15.82 327.44 -14.41 Q 327.29 -12.99 327.29 -11.79 L 327.29 -11.79 Q 327.29 -9.8 327.79 -8.51 Q 328.29 -7.22 329.36 -7.22 L 329.36 -7.22 Q 329.84 -7.22 330.47 -7.51 Q 331.1 -7.8 331.82 -8.27 Q 332.55 -8.73 333.3 -9.35 Q 334.06 -9.96 334.8 -10.6 L 334.8 -10.6 Q 336.51 -12.12 338.38 -14.02 L 338.38 -14.02 L 338.93 -6.8 L 337.32 -5.58 Q 335.99 -4.58 334.62 -3.58 Q 333.25 -2.58 331.77 -1.79 Q 330.29 -1 328.68 -0.5 Q 327.07 0 325.29 0 L 325.29 0 Q 323.52 0 322.31 -2.56 Q 321.11 -5.12 321.11 -10.05 L 321.11 -10.05 Q 321.11 -11.99 321.36 -14.23 Q 321.62 -16.47 322.01 -19.05 L 322.01 -19.05 L 321.49 -19.05 L 313.05 -2.29 Q 312.4 -0.97 311.6 -0.48 Q 310.79 0 309.73 0 L 309.73 0 Q 308.41 0 307.6 -0.56 Q 306.8 -1.13 306.36 -2.08 Q 305.93 -3.03 305.78 -4.24 Q 305.64 -5.45 305.64 -6.74 Z" stroke-linecap="round" />
</g>
</g>
</g>
<g transform="matrix(2.0722925232546814 0 0 2.0722925232546814 640 384.69058629206927)" id="logo-logo"  >
<g style=""  paint-order="stroke"   >
		<g transform="matrix(0.21146019984493292 0 0 -0.2114601998449329 7.780094158817462 46.98037692479846)"  >
<path style="stroke: none; stroke-width: 1; stroke-dasharray: none; stroke-linecap: butt; stroke-dashoffset: 0; stroke-linejoin: miter; stroke-miterlimit: 4; fill: rgb(141,104,253); fill-rule: nonzero; opacity: 1;"  paint-order="stroke"  transform=" translate(-687.6254999999999, -399.54499999999996)" d="M 1096.15 582.41 C 1093.2900000000002 578.4219999999999 1090.2900000000002 574.5079999999999 1087.02 570.75 L 1074.28 510.859 C 1090.53 498.375 1108.78 476.03499999999997 1108.78 461.99199999999996 C 1108.78 397.19499999999994 920.223 344.67199999999997 687.6289999999999 344.67199999999997 C 455.0349999999999 344.67199999999997 266.4799999999999 397.195 266.4799999999999 461.99199999999996 C 266.4799999999999 473.027 281.2659999999999 492.59 291.4879999999999 502.715 L 269.0859999999999 577.555 C 194.598 540.492 141.031 484.637 141.031 433.551 C 141.031 313.777 385.754 216.67999999999998 687.6289999999999 216.67999999999998 C 989.5079999999999 216.67999999999998 1234.2199999999998 313.777 1234.2199999999998 433.551 C 1234.2199999999998 486.895 1176.6599999999999 544.641 1096.1499999999999 582.41" stroke-linecap="round" />
</g>
		<g transform="matrix(0.21146019984493292 0 0 -0.2114601998449329 7.780517079217134 108.55864442064228)"  >
<path style="stroke: none; stroke-width: 1; stroke-dasharray: none; stroke-linecap: butt; stroke-dashoffset: 0; stroke-linejoin: miter; stroke-miterlimit: 4; fill: rgb(124,83,249); fill-rule: nonzero; opacity: 1;"  paint-order="stroke"  transform=" translate(-687.6275, -108.34)" d="M 369.195 216.68 C 419.445 89.832 542.891 0 687.629 0 C 832.367 0 955.813 89.832 1006.06 216.68 C 916.375 191.121 806.477 176.031 687.629 176.031 C 568.7810000000001 176.031 458.88300000000004 191.121 369.195 216.68" stroke-linecap="round" />
</g>
		<g transform="matrix(0.21146019984493292 0 0 -0.2114601998449329 5.378605454505077 -54.74043760860798)"  >
<path style="stroke: none; stroke-width: 1; stroke-dasharray: none; stroke-linecap: butt; stroke-dashoffset: 0; stroke-linejoin: miter; stroke-miterlimit: 4; fill: rgb(141,104,253); fill-rule: nonzero; opacity: 1;"  paint-order="stroke"  transform=" translate(-676.2688063712537, -880.5849999999999)" d="M 456.223 588.602 C 484.07800000000003 588.602 510.57 592.8009999999999 534.613 600.3439999999999 C 570.2700000000001 575.1289999999999 618.9340000000001 559.5699999999999 672.6210000000001 559.5699999999999 C 727.8160000000001 559.5699999999999 777.7110000000001 576.0039999999999 813.6090000000002 602.4839999999999 C 840.4380000000001 576.477 883.0700000000002 559.5699999999999 931.2420000000002 559.5699999999999 C 1012.4700000000001 559.5699999999999 1078.3200000000002 607.4219999999999 1078.3200000000002 666.449 C 1078.3200000000002 682.0039999999999 1073.65 696.7339999999999 1065.43 710.0659999999999 C 1083.41 727.7929999999999 1095.3100000000002 749.6479999999999 1094.16 773.328 C 1084.71 967.875 809.3480000000001 1019.41 809.3480000000001 1019.41 C 833.3320000000001 1146.71 645.8280000000001 1201.6 645.8280000000001 1201.6 C 645.8280000000001 1201.6 651.4060000000001 1102.54 578.172 1062.96 C 541.008 1042.8700000000001 526.289 1017.1800000000001 520.789 996.7420000000001 C 442.637 994.2230000000001 390.289 947.5160000000001 390.289 890.105 C 390.289 882.797 391.313 875.664 393.234 868.77 C 314.82 849.645 258.301 795.848 258.301 732.4259999999999 C 258.301 652.992 346.90999999999997 588.6019999999999 456.22299999999996 588.6019999999999" stroke-linecap="round" />
</g>
		<g transform="matrix(0.21146019984493292 0 0 -0.2114601998449329 5.091166257589293 29.493252778222114)"  >
<path style="stroke: none; stroke-width: 1; stroke-dasharray: none; stroke-linecap: butt; stroke-dashoffset: 0; stroke-linejoin: miter; stroke-miterlimit: 4; fill: rgb(124,83,249); fill-rule: nonzero; opacity: 1;"  paint-order="stroke"  transform=" translate(-674.9095, -482.242)" d="M 1009.39 423.664 L 1034.44 541.434 C 1007.8900000000001 522.418 971.469 510.65599999999995 931.2420000000001 510.65599999999995 C 883.066 510.65599999999995 840.4380000000001 527.563 813.609 553.574 C 777.711 527.0939999999999 727.816 510.65599999999995 672.6210000000001 510.65599999999995 C 618.9340000000001 510.65599999999995 570.2730000000001 526.2149999999999 534.613 551.434 C 510.57400000000007 543.887 484.0780000000001 539.688 456.22300000000007 539.688 C 401.0900000000001 539.688 351.2660000000001 556.098 315.3790000000001 582.527 L 362.633 424.66 C 439.875 398.58200000000005 556.785 381.957 687.6289999999999 381.957 C 816.742 381.957 932.1329999999999 398.18 1009.3899999999999 423.664" stroke-linecap="round" />
</g>
		<g transform="matrix(0.21146019984493292 0 0 -0.2114601998449329 -78.89958279214397 -103.48941477985954)"  >
<path style="stroke: none; stroke-width: 1; stroke-dasharray: none; stroke-linecap: butt; stroke-dashoffset: 0; stroke-linejoin: miter; stroke-miterlimit: 4; fill: rgb(124,83,249); fill-rule: nonzero; opacity: 1;"  paint-order="stroke"  transform=" translate(-277.715375, -1111.12)" d="M 323.195 1107.21 C 295.777 1101.97 286.859 1093.05 281.621 1065.64 C 280.79699999999997 1061.3200000000002 274.637 1061.3200000000002 273.80899999999997 1065.64 C 268.57 1093.0500000000002 259.65599999999995 1101.97 232.23799999999997 1107.21 C 227.91399999999996 1108.04 227.91399999999996 1114.2 232.23799999999997 1115.02 C 259.65599999999995 1120.26 268.57 1129.18 273.80899999999997 1156.6 C 274.63699999999994 1160.9199999999998 280.79699999999997 1160.9199999999998 281.621 1156.6 C 286.859 1129.1799999999998 295.777 1120.26 323.195 1115.02 C 327.516 1114.2 327.516 1108.04 323.195 1107.21" stroke-linecap="round" />
</g>
		<g transform="matrix(0.21146019984493292 0 0 -0.2114601998449329 127.32266860505501 -17.605039640514974)"  >
<path style="stroke: none; stroke-width: 1; stroke-dasharray: none; stroke-linecap: butt; stroke-dashoffset: 0; stroke-linejoin: miter; stroke-miterlimit: 4; fill: rgb(124,83,249); fill-rule: nonzero; opacity: 1;"  paint-order="stroke"  transform=" translate(-1252.9450000000002, -704.9708750000001)" d="M 1298.42 701.063 C 1271.01 695.824 1262.0900000000001 686.91 1256.8500000000001 659.492 C 1256.0300000000002 655.1719999999999 1249.8600000000001 655.1719999999999 1249.0400000000002 659.492 C 1243.8000000000002 686.91 1234.88 695.824 1207.4700000000003 701.063 C 1203.1400000000003 701.891 1203.1400000000003 708.051 1207.4700000000003 708.879 C 1234.8800000000003 714.113 1243.8000000000002 723.0310000000001 1249.0400000000002 750.4490000000001 C 1249.8600000000001 754.7700000000001 1256.0300000000002 754.7700000000001 1256.8500000000001 750.4490000000001 C 1262.0900000000001 723.0310000000001 1271.0100000000002 714.113 1298.42 708.879 C 1302.75 708.051 1302.75 701.891 1298.42 701.063" stroke-linecap="round" />
</g>
		<g transform="matrix(0.21146019984493292 0 0 -0.2114601998449329 -119.54204579573792 -21.56362744666211)"  >
<path style="stroke: none; stroke-width: 1; stroke-dasharray: none; stroke-linecap: butt; stroke-dashoffset: 0; stroke-linejoin: miter; stroke-miterlimit: 4; fill: rgb(124,83,249); fill-rule: nonzero; opacity: 1;"  paint-order="stroke"  transform=" translate(-85.51626125, -723.6911250000002)" d="M 165.344 716.832 C 117.219 707.641 101.566 691.9879999999999 92.375 643.863 C 90.9258 636.277 80.1094 636.277 78.6602 643.863 C 69.4648 691.988 53.8164 707.6410000000001 5.691410000000005 716.8320000000001 C -1.8984399999999955 718.2810000000001 -1.8984399999999955 729.0980000000001 5.691410000000005 730.5470000000001 C 53.8164 739.7420000000002 69.4648 755.3910000000002 78.6602 803.5200000000001 C 80.10940000000001 811.1050000000001 90.92580000000001 811.1050000000001 92.375 803.5200000000001 C 101.566 755.3910000000001 117.219 739.7420000000001 165.344 730.5470000000001 C 172.93 729.0980000000002 172.93 718.2810000000002 165.344 716.8320000000001" stroke-linecap="round" />
</g>
		<g transform="matrix(0.21146019984493292 0 0 -0.2114601998449329 91.64721828921643 -113.38469483160324)"  >
<path style="stroke: none; stroke-width: 1; stroke-dasharray: none; stroke-linecap: butt; stroke-dashoffset: 0; stroke-linejoin: miter; stroke-miterlimit: 4; fill: rgb(124,83,249); fill-rule: nonzero; opacity: 1;"  paint-order="stroke"  transform=" translate(-1084.235, -1157.915)" d="M 1164.06 1151.05 C 1115.94 1141.86 1100.28 1126.21 1091.09 1078.09 C 1089.6399999999999 1070.5 1078.83 1070.5 1077.3799999999999 1078.09 C 1068.1799999999998 1126.2099999999998 1052.53 1141.86 1004.4099999999999 1151.05 C 996.8199999999998 1152.5 996.8199999999998 1163.32 1004.4099999999999 1164.77 C 1052.5299999999997 1173.96 1068.1799999999998 1189.61 1077.3799999999999 1237.74 C 1078.83 1245.33 1089.6399999999999 1245.33 1091.09 1237.74 C 1100.28 1189.61 1115.9399999999998 1173.96 1164.06 1164.77 C 1171.6499999999999 1163.32 1171.6499999999999 1152.5 1164.06 1151.05" stroke-linecap="round" />
</g>
</g>
</g>
</svg>